<?xml version="1.0" encoding="utf-8"?>
<svg version="1.0" xmlns="http://www.w3.org/2000/svg" width="1024.000000pt" height="1024.000000pt" viewBox="0 0 1024.000000 1024.000000" preserveAspectRatio="xMidYMid meet">
  <ellipse style="stroke: rgb(0, 0, 0); fill: rgb(201, 198, 198); stroke-width: 6px;" cx="512.436" cy="510.694" rx="504.598" ry="505.47"/>
  <g transform="matrix(0.1, 0, 0, -0.1, -10.255071, 1065.217041)" fill="#000000" stroke="none">
    <g style="" transform="matrix(1.530726, 0, 0, 1.505561, -2582.181885, -1869.929321)">
      <path d="M3490 5052 l0 -1228 113 -12 c438 -47 895 -217 1294 -479 65 -43 124 -82 131 -86 10 -7 12 218 10 1155 -3 1099 -4 1165 -21 1196 -32 58 -135 150 -306 271 -221 158 -489 284 -741 349 -124 32 -326 62 -421 62 l-59 0 0 -1228z" style="stroke: rgb(0, 0, 0);"/>
      <path d="M6494 6265 c-404 -52 -888 -286 -1187 -573 -107 -102 -97 35 -97 -1291 l0 -1161 68 49 c286 209 669 382 1026 466 122 28 351 65 406 65 l40 0 0 1230 0 1230 -77 -1 c-43 -1 -123 -7 -179 -14z" style="stroke: rgb(0, 0, 0);"/>
    </g>
    <g style="" transform="matrix(1.530726, 0, 0, 1.505561, -2582.182129, -1911.959473)">
      <path d="M3490 5052 l0 -1228 113 -12 c438 -47 895 -217 1294 -479 65 -43 124 -82 131 -86 10 -7 12 218 10 1155 -3 1099 -4 1165 -21 1196 -32 58 -135 150 -306 271 -221 158 -489 284 -741 349 -124 32 -326 62 -421 62 l-59 0 0 -1228z" style="fill: rgb(255, 255, 255); stroke: rgb(0, 0, 0); stroke-width: 6.58699px;"/>
      <path d="M6494 6265 c-404 -52 -888 -286 -1187 -573 -107 -102 -97 35 -97 -1291 l0 -1161 68 49 c286 209 669 382 1026 466 122 28 351 65 406 65 l40 0 0 1230 0 1230 -77 -1 c-43 -1 -123 -7 -179 -14z" style="fill: rgb(255, 255, 255); stroke: rgb(0, 0, 0); stroke-width: 6.58699px;"/>
    </g>
    <g style="" transform="matrix(1.527177, 0, 0, 1.503024, -2570.751465, -1952.647461)">
      <path d="M3490 5052 l0 -1228 113 -12 c438 -47 895 -217 1294 -479 65 -43 124 -82 131 -86 10 -7 12 218 10 1155 -3 1099 -4 1165 -21 1196 -32 58 -135 150 -306 271 -221 158 -489 284 -741 349 -124 32 -326 62 -421 62 l-59 0 0 -1228z" style="fill: rgb(255, 255, 255); stroke: rgb(0, 0, 0); stroke-width: 13.174px;"/>
      <path d="M6494 6265 c-404 -52 -888 -286 -1187 -573 -107 -102 -97 35 -97 -1291 l0 -1161 68 49 c286 209 669 382 1026 466 122 28 351 65 406 65 l40 0 0 1230 0 1230 -77 -1 c-43 -1 -123 -7 -179 -14z" style="fill: rgb(255, 255, 255); stroke: rgb(0, 0, 0); stroke-width: 13.174px;"/>
    </g>
    <g style="" transform="matrix(1.527177, 0, 0, 1.503024, -2569.89209, -2028.45166)">
      <path d="M3490 5052 l0 -1228 113 -12 c438 -47 895 -217 1294 -479 65 -43 124 -82 131 -86 10 -7 12 218 10 1155 -3 1099 -4 1165 -21 1196 -32 58 -135 150 -306 271 -221 158 -489 284 -741 349 -124 32 -326 62 -421 62 l-59 0 0 -1228z" style="fill: rgb(255, 255, 255); stroke: rgb(0, 0, 0); stroke-width: 13.174px;"/>
      <path d="M6494 6265 c-404 -52 -888 -286 -1187 -573 -107 -102 -97 35 -97 -1291 l0 -1161 68 49 c286 209 669 382 1026 466 122 28 351 65 406 65 l40 0 0 1230 0 1230 -77 -1 c-43 -1 -123 -7 -179 -14z" style="fill: rgb(255, 255, 255); stroke: rgb(0, 0, 0); stroke-width: 13.174px;"/>
    </g>
    <path d="M 4724.69 9752.83 C 4534.88 9727.42 4318.83 9685.18 4200 9649.72 C 3811.11 9533.16 3642.9 9465.58 3354.32 9306.8 C 2544.13 8862.51 1900.62 8078.69 1585.8 7152.98 C 1474.68 6830.32 1389.81 6391.11 1363.58 6014.41 C 1352.77 5872.52 1351.23 5865.76 1306.48 5842.1 C 1096.6 5727.23 906.78 5526.22 818.817 5326.89 C 733.941 5132.61 724.681 5039.7 730.854 4436.64 C 737.027 3892.7 737.027 3891.01 780.237 3747.41 C 855.854 3497.41 928.386 3375.78 1110.49 3186.59 C 1314.2 2977.11 1519.45 2872.38 1754.01 2857.18 C 1922.22 2847.05 2027.16 2875.76 2158.33 2968.66 C 2255.56 3037.93 2317.28 3122.39 2355.86 3238.95 C 2389.81 3348.76 2391.36 5544.8 2355.86 5657.98 C 2304.94 5821.84 2142.9 5990.77 1999.39 6029.61 C 1962.34 6039.76 1931.48 6053.27 1931.48 6060.02 C 1931.48 6120.84 2002.47 6514.44 2037.96 6652.95 C 2246.29 7460.43 2721.61 8159.77 3351.24 8590.55 C 3914.5 8974 4650.62 9178.41 5357.41 9146.31 C 6348.15 9102.39 7192.29 8675 7787.97 7916.52 C 8016.36 7625.98 8200.01 7298.26 8328.09 6948.57 C 8392.91 6772.9 8482.41 6404.64 8497.84 6255.98 C 8502.47 6200.23 8510.19 6130.98 8514.82 6102.26 C 8521 6051.57 8519.45 6049.89 8433.03 6022.85 C 8272.54 5973.88 8122.85 5808.32 8071.92 5622.51 C 8051.86 5551.56 8039.51 3627.49 8058.03 3409.57 C 8076.55 3174.76 8166.06 3031.18 8358.95 2926.43 C 8459.27 2872.38 8491.68 2863.93 8616.67 2855.49 C 8743.21 2848.74 8775.62 2853.8 8883.64 2892.66 C 9079.63 2965.28 9220.06 3061.57 9377.47 3232.2 C 9527.16 3392.68 9613.59 3532.89 9662.97 3686.61 C 9716.98 3860.61 9727.78 4017.7 9721.61 4575.15 C 9715.44 5073.49 9712.35 5114.03 9681.48 5206.94 C 9593.52 5467.1 9392.9 5708.65 9175.31 5820.15 L 9096.61 5858.99 L 9085.81 6016.1 C 8996.3 7310.07 8446.91 8343.9 7462.35 9066.92 C 7028.7 9384.5 6528.71 9605.8 6013.27 9710.52 C 5675.31 9778.13 5061.11 9798.42 4724.69 9752.83 Z" style=""/>
    <g style="" transform="matrix(1.527177, 0, 0, 1.503024, -2563.786621, -2166.443848)">
      <path d="M3490 5052 l0 -1228 113 -12 c438 -47 895 -217 1294 -479 65 -43 124 -82 131 -86 10 -7 12 218 10 1155 -3 1099 -4 1165 -21 1196 -32 58 -135 150 -306 271 -221 158 -489 284 -741 349 -124 32 -326 62 -421 62 l-59 0 0 -1228z" style="fill: rgb(255, 255, 255); stroke: rgb(0, 0, 0); stroke-width: 13.174px;"/>
      <path d="M6494 6265 c-404 -52 -888 -286 -1187 -573 -107 -102 -97 35 -97 -1291 l0 -1161 68 49 c286 209 669 382 1026 466 122 28 351 65 406 65 l40 0 0 1230 0 1230 -77 -1 c-43 -1 -123 -7 -179 -14z" style="fill: rgb(255, 255, 255); stroke: rgb(0, 0, 0); stroke-width: 13.174px;"/>
    </g>
    <g style="" transform="matrix(1.527177, 0, 0, 1.503024, -2559.124268, -2271.781738)">
      <path d="M3490 5052 l0 -1228 113 -12 c438 -47 895 -217 1294 -479 65 -43 124 -82 131 -86 10 -7 12 218 10 1155 -3 1099 -4 1165 -21 1196 -32 58 -135 150 -306 271 -221 158 -489 284 -741 349 -124 32 -326 62 -421 62 l-59 0 0 -1228z" style="fill: rgb(255, 255, 255); stroke: rgb(0, 0, 0); stroke-width: 13.174px;"/>
      <path d="M6494 6265 c-404 -52 -888 -286 -1187 -573 -107 -102 -97 35 -97 -1291 l0 -1161 68 49 c286 209 669 382 1026 466 122 28 351 65 406 65 l40 0 0 1230 0 1230 -77 -1 c-43 -1 -123 -7 -179 -14z" style="fill: rgb(255, 255, 255); stroke: rgb(0, 0, 0); stroke-width: 13.174px;"/>
    </g>
    <g style="" transform="matrix(1.530726, 0, 0, 1.505561, -2588.475098, -2355.851318)">
      <path d="M3490 5052 l0 -1228 113 -12 c438 -47 895 -217 1294 -479 65 -43 124 -82 131 -86 10 -7 12 218 10 1155 -3 1099 -4 1165 -21 1196 -32 58 -135 150 -306 271 -221 158 -489 284 -741 349 -124 32 -326 62 -421 62 l-59 0 0 -1228z" style="fill: rgb(125, 27, 27); stroke-width: 13.174px; stroke: rgb(133, 16, 16);"/>
      <path d="M6494 6265 c-404 -52 -888 -286 -1187 -573 -107 -102 -97 35 -97 -1291 l0 -1161 68 49 c286 209 669 382 1026 466 122 28 351 65 406 65 l40 0 0 1230 0 1230 -77 -1 c-43 -1 -123 -7 -179 -14z" style="fill: rgb(125, 27, 27); stroke-width: 13.174px; stroke: rgb(133, 16, 16);"/>
    </g>
  </g>
</svg>